# xmcd CD database file
#
# Track frame offsets:
#	150
#	15673
#	38143
#	48646
#	68938
#	90025
#	107067
#	127527
#	150682
#	169951
#	184143
#	203105
#	218914
#	237404
#	255844
#	271727
#
# Disc length: 3784 seconds
#
# Revision: 0
# Processed by: cddbd v1.5.1PL0 Copyright (c) Steve Scherf et al.
# Submitted via: CDex 1.51
#
DISCID=cd0ec610
DTITLE=Various Artist - Smooth Lounge
DYEAR=2003
DGENRE=Jazz
TTITLE0=Nana Mouskouri - As Time Goes By
TTITLE1=Caterina Valente - Maybe This Summer
TTITLE2=Chet Baker - My Funny Valentine
TTITLE3=Anita Baker - You Bring Me Joy
TTITLE4=Ray Charles and Betty Carter - Every Time We Say Goodbye
TTITLE5=Patti La Belle - Sleep With Me Tonight
TTITLE6=Gloria Gaynor - You're The First, My Last, My Everything
TTITLE7=Caterina Valente - E La Chiamno Estate
TTITLE8=Al Jarreau - Sophisticated Lady
TTITLE9=Astrud Gilberto and Stan Getz - One Note Samba
TTITLE10=Ray Charles and Betty Carter - Baby, It's Cold Outside
TTITLE11=Barry White - Your Heart And Soutl
TTITLE12=Caterina Valente - Mediatacao
TTITLE13=Ester Philips - A Way To Say Goodbye
TTITLE14=Miles Davis - Once Upon Summertime
TTITLE15=Nana Mouskouri - Smoke Gets In Your Eyes
EXTD=YEAR: 2003
EXTT0=
EXTT1=
EXTT2=
EXTT3=
EXTT4=
EXTT5=
EXTT6=
EXTT7=
EXTT8=
EXTT9=
EXTT10=
EXTT11=
EXTT12=
EXTT13=
EXTT14=
EXTT15=
PLAYORDER=
